<svg xmlns="http://www.w3.org/2000/svg" viewBox="0 0 24 24" fill="currentColor">
  <defs>
    <linearGradient id="gradient" x1="0%" y1="0%" x2="100%" y2="100%">
      <stop offset="0%" style="stop-color:#0ea5e9;stop-opacity:1" />
      <stop offset="100%" style="stop-color:#4f46e5;stop-opacity:1" />
    </linearGradient>
  </defs>
  <path fill="url(#gradient)" d="M11.645 20.91l-.007-.003-.022-.012a15.247 15.247 0 01-1.383-.598 15.25 15.25 0 01-1.358-1.428 15.25 15.25 0 01-1.358 1.428 15.247 15.247 0 01-1.383.598l-.022.012-.007.003h-.001a.75.75 0 01.002 0l-.002.001a.75.75 0 010 1.498l.003-.001.006-.003.021-.012a16.75 16.75 0 001.52-.67 16.75 16.75 0 001.5-1.583 16.75 16.75 0 001.5 1.583 16.75 16.75 0 001.52.67l.021.012.006.003.003.001a.75.75 0 010-1.498l-.002-.001h-.001zM12 2.25a.75.75 0 01.75.75v11.69l3.22-3.22a.75.75 0 111.06 1.06l-4.5 4.5a.75.75 0 01-1.06 0l-4.5-4.5a.75.75 0 111.06-1.06l3.22 3.22V3a.75.75 0 01.75-.75z" />
</svg>
